<svg width="20" height="26" viewBox="0 0 20 26" fill="none" xmlns="http://www.w3.org/2000/svg">
<path d="M8.7999 19.1256C6.37916 18.8176 4.16653 17.5994 2.61173 15.7185C1.05693 13.8377 0.276638 11.4354 0.429447 8.99997C0.582256 6.56449 1.6567 4.27859 3.4344 2.60686C5.21209 0.935129 7.55964 0.00302761 9.9999 2.66503e-06C12.4432 -0.00181675 14.7952 0.928008 16.5767 2.60002C18.3582 4.27202 19.4352 6.56039 19.5882 8.99885C19.7412 11.4373 18.9587 13.8423 17.4001 15.7239C15.8416 17.6055 13.6242 18.822 11.1999 19.1256V21.6144C15.9351 21.7248 19.5999 22.482 19.5999 23.4C19.5999 24.3936 15.3015 25.2 9.9999 25.2C4.6983 25.2 0.399902 24.3936 0.399902 23.4C0.399902 22.482 4.0647 21.7248 8.7999 21.6144V19.1256V19.1256ZM9.9999 12C10.6364 12 11.2469 11.7471 11.697 11.2971C12.147 10.847 12.3999 10.2365 12.3999 9.6C12.3999 8.96348 12.147 8.35303 11.697 7.90295C11.2469 7.45286 10.6364 7.2 9.9999 7.2C9.36338 7.2 8.75293 7.45286 8.30285 7.90295C7.85276 8.35303 7.5999 8.96348 7.5999 9.6C7.5999 10.2365 7.85276 10.847 8.30285 11.2971C8.75293 11.7471 9.36338 12 9.9999 12Z" fill="#E255F2"/>
</svg>
