<svg width="48" height="48" viewBox="0 0 48 48" fill="none" xmlns="http://www.w3.org/2000/svg">
<circle cx="24" cy="24" r="24" fill="#F9C2FF"/>
<path d="M20.6757 17.0997L20.7226 17.0644C21.6712 16.3927 22.8 16.022 23.915 16.0026C25.3267 15.9099 26.7082 16.4395 27.6251 17.386C28.5736 18.1857 29.0772 19.3945 28.9805 20.5472C28.9834 21.4172 28.7025 22.2645 28.1549 22.9931C27.7617 23.4746 27.3046 23.9001 26.8506 24.217L26.3068 24.658C26.1803 24.757 26.0837 24.889 26.0444 24.9908C25.9846 25.1354 25.9917 25.3706 26.0005 25.5649V26.6105L22.0005 26.6105L21.9828 25.6779C21.9364 24.991 21.9745 24.3011 22.1117 23.5526C22.2096 23.1699 22.4092 22.8493 22.7019 22.5457C22.9005 22.3396 23.0482 22.217 23.5209 21.8456L24.118 21.375C24.2771 21.2579 24.4209 21.1212 24.4979 21.0319C24.6001 20.884 24.6605 20.7113 24.6708 20.5758C24.6739 20.45 24.6322 20.3272 24.5108 20.1733C24.3906 20.0012 24.1856 19.9092 23.9158 19.939C23.6611 19.953 23.4214 20.0639 23.2736 20.2185C23.0916 20.4267 22.9878 20.6919 22.9801 20.9683L22.953 21.9405H19.0587L18.9838 21.0217C18.861 19.5145 19.495 18.0447 20.6757 17.0997Z" fill="#0E121B"/>
<path d="M21.3003 17.8804C22.0851 17.3248 23.0189 17.0181 23.9803 17.0004C25.1003 16.9269 26.1964 17.3471 26.9803 18.1504C27.6818 18.7419 28.0543 19.6359 27.9803 20.5504C27.9825 21.203 27.7718 21.8384 27.3803 22.3604C27.0445 22.7715 26.6543 23.1348 26.2203 23.4404L25.6903 23.8704C25.4185 24.0832 25.2108 24.367 25.0903 24.6904C25.0267 24.8803 24.9861 25.2991 25.0003 25.6104H23.0003C22.9594 25.0053 22.973 24.3974 23.0803 23.8004C23.1903 23.3704 23.5803 23.0704 24.1403 22.6304L24.7103 22.1804C24.9372 22.0135 25.1422 21.8187 25.3203 21.6004C25.5248 21.3046 25.6457 20.9592 25.6703 20.6004C25.6793 20.2373 25.5588 19.8829 25.3303 19.6004C24.9992 19.1266 24.4345 18.873 23.8603 18.9404C23.3509 18.9686 22.8716 19.1904 22.5203 19.5604C22.1854 19.9437 21.9945 20.4317 21.9803 20.9404H19.9803C19.8879 19.7972 20.3535 18.6798 21.2303 17.9404" fill="#E255F2"/>
<path d="M26 26V30H22V26H26Z" fill="#0E121B"/>
<path d="M25 27H23V29H25V27Z" fill="#E255F2"/>
</svg>
